<?xml version="1.0" encoding="UTF-8"?>
<svg version="1.1" viewBox="0 0 18 18" xmlns="http://www.w3.org/2000/svg" xmlns:xlink="http://www.w3.org/1999/xlink">
    <!--Generated by IJSVG (https://github.com/curthard89/IJSVG)-->
    <g fill="none">
        <path d="M0,0h18v18h-18Z"></path>
        <path fill="#9B9B9B" d="M1.5,0c-0.83,0 -1.5,0.67 -1.5,1.5c0,0.83 0.67,1.5 1.5,1.5c0.83,0 1.5,-0.67 1.5,-1.5c0,-0.83 -0.67,-1.5 -1.5,-1.5Zm10,0c-0.83,0 -1.5,0.67 -1.5,1.5c0,0.83 0.67,1.5 1.5,1.5c0.83,0 1.5,-0.67 1.5,-1.5c0,-0.83 -0.67,-1.5 -1.5,-1.5Zm-5,0c-0.83,0 -1.5,0.67 -1.5,1.5c0,0.83 0.67,1.5 1.5,1.5c0.83,0 1.5,-0.67 1.5,-1.5c0,-0.83 -0.67,-1.5 -1.5,-1.5Z" transform="translate(2.5, 7.5)"></path>
    </g>
</svg>