<?xml version="1.0" standalone="no"?><!DOCTYPE svg PUBLIC "-//W3C//DTD SVG 1.1//EN" "http://www.w3.org/Graphics/SVG/1.1/DTD/svg11.dtd"><svg xmlns:xlink="http://www.w3.org/1999/xlink" xmlns="http://www.w3.org/2000/svg" version="1.1" width="200" height="200" viewBox="0 0 200 200"><defs><style type="text/css"><![CDATA[
@font-face {
  font-family: "ifont";
  src: url("//at.alicdn.com/t/font_1442373896_4754455.eot?#iefix") format("embedded-opentype"), url("//at.alicdn.com/t/font_1442373896_4754455.woff") format("woff"), url("//at.alicdn.com/t/font_1442373896_4754455.ttf") format("truetype"), url("//at.alicdn.com/t/font_1442373896_4754455.svg#ifont") format("svg");
}

]]></style></defs><g class="transform-group"><g transform="scale(0.1953125, 0.1953125)"><path d="M512 768c-17.664 0-32-14.304-32-32l0-96c0-17.696 14.336-32 32-32s32 14.304 32 32l0 96C544 753.696 529.664 768 512 768zM832 960 192 960c-52.928 0-96-43.072-96-96L96 480c0-52.928 43.072-96 96-96l640 0c52.928 0 96 43.072 96 96l0 384C928 916.928 884.928 960 832 960zM192 448c-17.632 0-32 14.368-32 32l0 384c0 17.664 14.368 32 32 32l640 0c17.664 0 32-14.336 32-32L864 480c0-17.632-14.336-32-32-32L192 448zM288 416c-17.664 0-32-14.336-32-32L256 319.328c0-160.064 135.392-255.744 266.304-255.744 100.672 0 198.72 59.872 244.032 148.992 8 15.744 1.728 35.008-14.016 43.04-15.776 8-35.04 1.696-43.04-14.016-34.656-68.16-109.792-113.984-186.976-113.984C422.848 127.584 320 199.296 320 319.328L320 384C320 401.664 305.664 416 288 416z" fill="#272636"></path></g></g></svg>