<?xml version="1.0" encoding="UTF-8"?>
<svg version="1.1" viewBox="0 0 24 24" xmlns="http://www.w3.org/2000/svg" xmlns:xlink="http://www.w3.org/1999/xlink">
    <!--Generated by IJSVG (https://github.com/curthard89/IJSVG)-->
    <defs>
        <path id="path-1" d="M0,0h2v2h-2Z"></path>
    </defs>
    <path fill="none" d="M0,0h24v24h-24Z"></path>
    <g fill="#DEDEDE">
        <path d="M0,6l6,-3l-6,-3Z" transform="translate(10, 9)"></path>
        <path d="M20,0h-18c-1.103,0 -2,0.896 -2,2v16c0,1.103 0.897,2 2,2h18c1.103,0 2,-0.897 2,-2v-16c0,-1.104 -0.897,-2 -2,-2Zm-18,18v-16h18l0.001,16h-18.001Z" transform="translate(1, 2)"></path>
        <use transform="translate(5, 5)" xlink:href="#path-1"></use>
        <use transform="translate(9, 5)" xlink:href="#path-1"></use>
        <use transform="translate(13, 5)" xlink:href="#path-1"></use>
        <use transform="translate(17, 5)" xlink:href="#path-1"></use>
        <use transform="translate(5, 17)" xlink:href="#path-1"></use>
        <use transform="translate(9, 17)" xlink:href="#path-1"></use>
        <use transform="translate(13, 17)" xlink:href="#path-1"></use>
        <use transform="translate(17, 17)" xlink:href="#path-1"></use>
    </g>
</svg>