<?xml version="1.0" encoding="UTF-8"?>
<svg version="1.1" viewBox="0 0 48 48" xmlns="http://www.w3.org/2000/svg" xmlns:xlink="http://www.w3.org/1999/xlink">
    <!--Generated by IJSVG (https://github.com/curthard89/IJSVG)-->
    <g fill="#9B9B9B" fill-rule="evenodd">
        <path d="M41.81,21.717c-0.381,0.382 -1,0.382 -1.381,0l-8.939,-8.938c-0.064,-0.051 -0.119,-0.106 -0.17,-0.171l-3.83,-3.829c-0.064,-0.051 -0.119,-0.106 -0.17,-0.171l-6.225,-6.225l-19.333,19.334c-0.381,0.382 -1,0.382 -1.381,0c-0.381,-0.381 -0.381,-1 0,-1.381l19.905,-19.905c0.031,-0.047 0.053,-0.101 0.094,-0.144c0.197,-0.196 0.457,-0.287 0.715,-0.281c0.258,-0.006 0.518,0.084 0.715,0.281c0.043,0.042 0.062,0.096 0.096,0.144l5.189,5.191v-2.619c0,0 0,0 0,0c0,-0.552 0.447,-1 1,-1h4c0.277,0 0.527,0.112 0.707,0.293c0.182,0.181 0.293,0.431 0.293,0.707v8.619l8.715,8.714c0.381,0.381 0.381,1 0,1.381Zm-10.715,-17.714h-2v3.619l2,2v-5.619Zm-24,16c0.552,0 1,0.448 1,1v19c0,1.105 0.896,2 2,2h6v0v-13c0,-0.553 0.447,-1 1,-1h8c0.553,0 1,0.447 1,1v13v0h6c1.105,0 2,-0.895 2,-2v-19c0,-0.552 0.447,-1 1,-1c0.553,0 1,0.448 1,1v19c0,2.209 -1.791,4 -4,4h-22c-2.209,0 -4,-1.791 -4,-4v-19c0,-0.553 0.448,-1 1,-1Zm17,21.999v-12h-6v12v0h6v0Z" transform="translate(2.905, 1.994)"></path>
    </g>
</svg>