<?xml version="1.0" encoding="UTF-8"?>
<svg version="1.1" viewBox="0 0 32 32" xmlns="http://www.w3.org/2000/svg" xmlns:xlink="http://www.w3.org/1999/xlink">
    <!--Generated by IJSVG (https://github.com/curthard89/IJSVG)-->
    <g fill="#9B9B9B">
        <path d="M5.332,2.665c0,-1.472 -1.194,-2.665 -2.666,-2.665c-1.472,0 -2.666,1.193 -2.666,2.665c0,1.289 0.916,2.365 2.133,2.612v18.18h1.066v-18.18c1.217,-0.247 2.133,-1.323 2.133,-2.612Zm-2.666,1.6c-0.882,0 -1.599,-0.717 -1.599,-1.599c0,-0.882 0.717,-1.599 1.599,-1.599c0.882,0 1.599,0.717 1.599,1.599c0,0.882 -0.717,1.599 -1.599,1.599Z" transform="translate(22.93, 3.205)"></path>
        <path d="M3.198,18.18v-18.18h-1.066v18.18c-1.217,0.247 -2.132,1.322 -2.132,2.612c0,1.472 1.194,2.666 2.666,2.666c1.472,0 2.666,-1.194 2.666,-2.666c0,-1.29 -0.916,-2.365 -2.133,-2.612Zm-0.533,4.212c-0.882,0 -1.599,-0.717 -1.599,-1.599c0,-0.882 0.717,-1.599 1.599,-1.599c0.882,0 1.599,0.717 1.599,1.599c0,0.882 -0.717,1.599 -1.599,1.599Z" transform="translate(3.739, 5.337)"></path>
        <path d="M3.199,8.05v-8.05h-1.066v8.05c-1.217,0.247 -2.133,1.323 -2.133,2.612c0,1.289 0.916,2.365 2.133,2.612v8.05h1.066v-8.05c1.217,-0.247 2.133,-1.323 2.133,-2.612c0,-1.289 -0.916,-2.365 -2.133,-2.612Zm-0.533,4.211c-0.882,0 -1.599,-0.717 -1.599,-1.599c0,-0.882 0.717,-1.599 1.599,-1.599c0.882,0 1.599,0.717 1.599,1.599c0,0.882 -0.717,1.599 -1.599,1.599Z" transform="translate(13.334, 5.338)"></path>
    </g>
</svg>