<?xml version="1.0" encoding="UTF-8"?>
<svg version="1.1" viewBox="0 0 48 48" xmlns="http://www.w3.org/2000/svg" xmlns:xlink="http://www.w3.org/1999/xlink">
    <!--Generated by IJSVG (https://github.com/curthard89/IJSVG)-->
    <g fill="#9B9B9B" fill-rule="evenodd">
        <path d="M42,38h-35c-2.209,0 -4,-1.791 -4,-4v-19.142c-1.723,-0.446 -3,-1.996 -3,-3.858v-2.973c0,-0.002 0,-0.003 0,-0.005v-0.022c0,-0.157 0.043,-0.3 0.107,-0.433c0.005,-0.009 0.012,-0.015 0.017,-0.023c0.066,-0.127 0.159,-0.232 0.271,-0.32l6.83,-6.829c0.182,-0.234 0.455,-0.395 0.775,-0.395h0.021c0.002,0 0.004,0 0.006,0h5.994c0.002,0 0.004,0 0.006,0h5.994c0.002,0 0.004,0 0.006,0h5.994c0.002,0 0.004,0 0.006,0h5.994c0.002,0 0.004,0 0.006,0h9.973c2.209,0 4,1.791 4,4v0v30c0,2.209 -1.791,4 -4,4Zm-28,-2v0v-9h-4v9v0h4Zm-12,-25c0,1.104 0.896,2 2,2c1.104,0 2,-0.896 2,-2v-2h-4v2Zm6.381,-9l-5,5h3.238l5,-5h-3.238Zm-0.381,9c0,1.104 0.896,2 2,2c1.104,0 2,-0.896 2,-2v-2h-4v2Zm6.381,-9l-5,5h3.238l5,-5h-3.238Zm-0.381,9c0,1.104 0.896,2 2,2c1.104,0 2,-0.896 2,-2v-2h-4v2Zm6.381,-9l-5,5h3.238l5,-5h-3.238Zm-0.381,9c0,1.104 0.896,2 2,2c1.104,0 2,-0.896 2,-2v-2h-4v2Zm6.381,-9l-5,5h3.238l5,-5h-3.238Zm4.619,1.381l-5,5v2.619c0,2.209 -1.791,4 -4,4c-1.201,0 -2.267,-0.541 -3,-1.379c-0.733,0.838 -1.799,1.379 -3,1.379c-1.201,0 -2.267,-0.541 -3,-1.379c-0.733,0.838 -1.799,1.379 -3,1.379c-1.203,0 -2.268,-0.541 -3.002,-1.381c-0.521,0.591 -1.209,1.035 -1.998,1.239v19.142c0,1.104 0.896,2 2,2h1v0v-10c0,-0.553 0.447,-1 1,-1h6c0.553,0 1,0.447 1,1v10v0h13c1.104,0 2,-0.896 2,-2v-30.619Zm13,0.619c0,-1.104 -0.896,-2 -2,-2h-9v32c0,0.732 -0.211,1.41 -0.555,2h9.555c1.104,0 2,-0.896 2,-2v-30Zm-17,23v0h-8v0c-0.553,0 -1,-0.447 -1,-1v-7c0,-0.553 0.447,-1 1,-1h8c0.553,0 1,0.447 1,1v7c0,0.553 -0.447,1 -1,1Zm-1,-7h-6v5h6v-5Z" transform="translate(1, 5)"></path>
    </g>
</svg>