<?xml version="1.0" encoding="UTF-8"?>
<svg version="1.1" viewBox="0 0 48 48" xmlns="http://www.w3.org/2000/svg" xmlns:xlink="http://www.w3.org/1999/xlink">
    <!--Generated by IJSVG (https://github.com/curthard89/IJSVG)-->
    <g fill="#9B9B9B" fill-rule="evenodd">
        <path d="M0,46v-27c0,-2.209 1.791,-4 4,-4v0v-4c0,-1.104 0.896,-2 2,-2h2v-8c0,-0.552 0.447,-1 1,-1c0.553,0 1,0.448 1,1v8h2c1.104,0 2,0.896 2,2v4v0v0c2.209,0 4,1.791 4,4v8h7v-6h4v-3h6v3h1v25h-36Zm12,-34c0,-0.552 -0.447,-1 -1,-1h-4c-0.553,0 -1,0.448 -1,1v3h6v-3Zm4,7c0,-1.104 -0.896,-2 -2,-2h-10c-1.104,0 -2,0.896 -2,2v25h14v-25Zm9,10h-7v15h7v-15Zm9,-6h-7v21h7v-21Zm-4,3h1c0.553,0 1,0.447 1,1v1c0,0.553 -0.447,1 -1,1h-1c-0.553,0 -1,-0.447 -1,-1v-1c0,-0.553 0.447,-1 1,-1Zm0,6h1c0.553,0 1,0.447 1,1v1c0,0.553 -0.447,1 -1,1h-1c-0.553,0 -1,-0.447 -1,-1v-1c0,-0.553 0.447,-1 1,-1Zm0,6h1c0.553,0 1,0.447 1,1v1c0,0.553 -0.447,1 -1,1h-1c-0.553,0 -1,-0.447 -1,-1v-1c0,-0.553 0.447,-1 1,-1Zm-9,-6h1c0.553,0 1,0.447 1,1v1c0,0.553 -0.447,1 -1,1h-1c-0.553,0 -1,-0.447 -1,-1v-1c0,-0.553 0.447,-1 1,-1Zm0,6h1c0.553,0 1,0.447 1,1v1c0,0.553 -0.447,1 -1,1h-1c-0.553,0 -1,-0.447 -1,-1v-1c0,-0.553 0.447,-1 1,-1Zm-9,3h-1c-0.553,0 -1,-0.447 -1,-1v-1c0,-0.552 0.447,-1 1,-1h1c0.553,0 1,0.448 1,1v1c0,0.553 -0.447,1 -1,1Zm0,-6h-1c-0.553,0 -1,-0.447 -1,-1v-1c0,-0.552 0.447,-1 1,-1h1c0.553,0 1,0.448 1,1v1c0,0.553 -0.447,1 -1,1Zm0,-6h-1c-0.553,0 -1,-0.447 -1,-1v-1c0,-0.552 0.447,-1 1,-1h1c0.553,0 1,0.448 1,1v1c0,0.553 -0.447,1 -1,1Zm0,-6h-1c-0.553,0 -1,-0.447 -1,-1v-1c0,-0.552 0.447,-1 1,-1h1c0.553,0 1,0.448 1,1v1c0,0.553 -0.447,1 -1,1Zm-5,18h-1c-0.553,0 -1,-0.447 -1,-1v-1c0,-0.553 0.447,-1 1,-1h1c0.553,0 1,0.447 1,1v1c0,0.553 -0.447,1 -1,1Zm0,-6h-1c-0.553,0 -1,-0.447 -1,-1v-1c0,-0.553 0.447,-1 1,-1h1c0.553,0 1,0.447 1,1v1c0,0.553 -0.447,1 -1,1Zm0,-6h-1c-0.553,0 -1,-0.447 -1,-1v-1c0,-0.552 0.447,-1 1,-1h1c0.553,0 1,0.448 1,1v1c0,0.553 -0.447,1 -1,1Zm0,-6h-1c-0.553,0 -1,-0.447 -1,-1v-1c0,-0.552 0.447,-1 1,-1h1c0.553,0 1,0.448 1,1v1c0,0.553 -0.447,1 -1,1Z" transform="translate(6, 1)"></path>
    </g>
</svg>