<?xml version="1.0" encoding="UTF-8"?>
<svg version="1.1" viewBox="0 0 48 48" xmlns="http://www.w3.org/2000/svg" xmlns:xlink="http://www.w3.org/1999/xlink">
    <!--Generated by IJSVG (https://github.com/curthard89/IJSVG)-->
    <g fill="#9B9B9B" fill-rule="evenodd">
        <path d="M39,46v0h-34v0c-2.762,0 -5,-2.238 -5,-5v-40c0,-0.552 0.447,-1 1,-1v0h34v0c0.414,0 0.77,0.252 0.922,0.611c0.05,0.119 0.078,0.251 0.078,0.389v0v14h7c0.553,0 1,0.448 1,1v25c0,2.762 -2.238,5 -5,5Zm-5,-5v-39h-32v39v0v0c0,1.657 1.344,3 3,3h30.022c-0.632,-0.838 -1.022,-1.869 -1.022,-3Zm8,-24h-6v24c0,1.657 1.343,3 3,3c1.657,0 3,-1.343 3,-3v-24Zm-37,22c0,-0.552 0.447,-1 1,-1h9c0.553,0 1,0.448 1,1c0,0.553 -0.447,1 -1,1h-9c-0.553,0 -1,-0.447 -1,-1Zm4.666,-16.285c-0.381,0.381 -0.999,0.381 -1.381,0c-0.381,-0.381 -0.381,-1 0,-1.381l5.905,-5.905c0.032,-0.047 0.053,-0.101 0.095,-0.143c0.197,-0.197 0.457,-0.288 0.715,-0.282c0.258,-0.006 0.518,0.084 0.715,0.282c0.042,0.042 0.062,0.096 0.095,0.143l4.19,4.19l2.19,-2.19c0.032,-0.047 0.053,-0.101 0.095,-0.143c0.197,-0.197 0.457,-0.288 0.715,-0.281c0.258,-0.007 0.518,0.084 0.715,0.281c0.042,0.042 0.062,0.096 0.095,0.143l3.905,3.905c0.381,0.381 0.381,1 0,1.381c-0.382,0.381 -1,0.381 -1.381,0l-3.334,-3.334l-1.619,1.619l0.334,0.334c0.381,0.381 0.381,1 0,1.381c-0.381,0.381 -1,0.381 -1.381,0l-5.334,-5.334l-5.334,5.334Zm11.334,5.285h9c0.553,0 1,0.448 1,1c0,0.553 -0.447,1 -1,1h-9c-0.553,0 -1,-0.447 -1,-1c0,-0.552 0.447,-1 1,-1Zm0,5h9c0.553,0 1,0.448 1,1c0,0.553 -0.447,1 -1,1h-9c-0.553,0 -1,-0.447 -1,-1c0,-0.552 0.447,-1 1,-1Zm0,5h9c0.553,0 1,0.448 1,1c0,0.553 -0.447,1 -1,1h-9c-0.553,0 -1,-0.447 -1,-1c0,-0.552 0.447,-1 1,-1Zm1,-23.5c0,0.829 -0.672,1.5 -1.5,1.5c-0.828,0 -1.5,-0.671 -1.5,-1.5c0,-0.829 0.672,-1.5 1.5,-1.5c0.828,0 1.5,0.671 1.5,1.5Zm3,-5.5h-14c-0.553,0 -1,-0.448 -1,-1c0,-0.552 0.447,-1 1,-1h14c0.553,0 1,0.448 1,1c0,0.552 -0.447,1 -1,1Zm-19,24h9c0.553,0 1,0.448 1,1c0,0.553 -0.447,1 -1,1h-9c-0.553,0 -1,-0.447 -1,-1c0,-0.552 0.447,-1 1,-1Zm10,-4c0,0.553 -0.447,1 -1,1h-9c-0.553,0 -1,-0.447 -1,-1c0,-0.552 0.447,-1 1,-1h9c0.553,0 1,0.448 1,1Z" transform="translate(2, 1)"></path>
    </g>
</svg>