<?xml version="1.0" encoding="UTF-8"?>
<svg version="1.1" viewBox="0 0 24 24.001" xmlns="http://www.w3.org/2000/svg" xmlns:xlink="http://www.w3.org/1999/xlink">
    <!--Generated by IJSVG (https://github.com/curthard89/IJSVG)-->
    <path fill="none" d="M0,0h24v24.001h-24Z"></path>
    <g fill="#4A4A4A">
        <path d="M18,11c0,-4.601 -4.535,-11 -9,-11c-4.465,0 -9,6.399 -9,11c0,4.898 4.081,5.861 8,5.982v1.018h-3v2h8v-2h-3v-1.018c3.919,-0.121 8,-1.084 8,-5.982Zm-16,0c-8.88178e-16,-3.554 3.754,-9 7,-9c3.246,0 7,5.446 7,9c0,2.023 -0.541,4 -7,4c-6.459,0 -7,-1.977 -7,-4Z" transform="translate(3.001, 2.002)"></path>
        <path d="M8,3h2c0,-1.768 -2.635,-3 -5,-3c-2.365,0 -5,1.232 -5,3l1.992,0.059c0.129,-0.323 1.4,-1.059 3.008,-1.059c1.608,0 2.879,0.736 3,1Z" transform="translate(7.001, 12.002)"></path>
    </g>
</svg>