<?xml version="1.0" encoding="UTF-8"?>
<svg version="1.1" viewBox="0 0 24 24" xmlns="http://www.w3.org/2000/svg" xmlns:xlink="http://www.w3.org/1999/xlink">
    <!--Generated by IJSVG (https://github.com/curthard89/IJSVG)-->
    <defs>
        <path id="path-2" d="M0,0h3v2h-3Z"></path>
        <path id="path-1" d="M0,0h2v3h-2Z"></path>
    </defs>
    <path fill="none" d="M0,0h24v24h-24Z"></path>
    <g fill="#9B9B9B">
        <path d="M5,0c-2.757,0 -5,2.243 -5,5c0,2.757 2.243,5 5,5c2.757,0 5,-2.243 5,-5c0,-2.757 -2.243,-5 -5,-5Zm0,8c-1.654,0 -3,-1.346 -3,-3c0,-1.654 1.346,-3 3,-3c1.654,0 3,1.346 3,3c0,1.654 -1.346,3 -3,3Z" transform="translate(7, 7)"></path>
        <use transform="translate(11, 2)" xlink:href="#path-1"></use>
        <g fill="#9B9B9B" transform="scale(0.99999) rotate(45, 18.011, 5.98977)">
            <path d="M0,0h2v3.002h-2Z" transform="translate(17.011, 4.489)"></path>
        </g>
        <use transform="translate(19, 11)" xlink:href="#path-2"></use>
        <g fill="#9B9B9B" transform="scale(-0.99999) rotate(44.9838, 43.5003, -43.498)">
            <path d="M0,0h3.002v1.999h-3.002Z" transform="translate(16.51, 17.011)"></path>
        </g>
        <use transform="translate(11, 19)" xlink:href="#path-1"></use>
        <g fill="#9B9B9B" transform="scale(-0.99999) rotate(44.9919, 43.491, -14.4655)">
            <path d="M0,0h1.999v3h-1.999Z" transform="translate(4.991, 16.511)"></path>
        </g>
        <use transform="translate(2, 11)" xlink:href="#path-2"></use>
        <g fill="#9B9B9B" transform="scale(0.99999) rotate(45.0162, 5.99007, 5.98921)">
            <use transform="translate(4.49, 4.99)" xlink:href="#path-2"></use>
        </g>
    </g>
</svg>