<?xml version="1.0" encoding="UTF-8"?>
<svg version="1.1" viewBox="0 0 24 24" xmlns="http://www.w3.org/2000/svg" xmlns:xlink="http://www.w3.org/1999/xlink">
    <!--Generated by IJSVG (https://github.com/curthard89/IJSVG)-->
    <path fill="none" d="M0,0h24v24h-24Z"></path>
    <g fill="#4A4A4A">
        <path d="M17.905,1.291c-1.289,-1.291 -3.995,0.088 -6.21,1.629c-0.663,-0.208 -1.368,-0.322 -2.098,-0.322c-3.86,0 -7,3.14 -7,7c4.44089e-16,0.73 0.113,1.434 0.322,2.097c-1.542,2.217 -2.919,4.922 -1.63,6.211c0.338,0.339 0.791,0.508 1.354,0.508c1.537,0 3.605,-1.269 4.868,-2.146c0.66,0.208 1.357,0.33 2.086,0.33c3.86,0 7,-3.14 7,-7c0,-0.728 -0.121,-1.426 -0.33,-2.086c1.147,-1.652 3.061,-4.799 1.638,-6.221Zm-8.207,13.297c0.851,-0.712 1.709,-1.497 2.551,-2.338c0.842,-0.842 1.626,-1.701 2.338,-2.551c-0.054,2.675 -2.214,4.835 -4.889,4.889Zm5.836,-8.679c-0.002,-0.004 -0.004,-0.008 -0.006,-0.011c-1.194,1.825 -2.545,3.498 -4.34,5.292c-1.562,1.561 -3.2,2.97 -5.292,4.34c0.004,0.002 0.008,0.003 0.011,0.005c-0.595,0.377 -3.072,1.796 -3.558,1.312c-0.176,-0.177 -0.101,-1.319 1.313,-3.554c0.284,0.455 0.612,0.878 0.989,1.255c0.543,-0.338 1.116,-0.737 1.701,-1.177c-1.065,-0.918 -1.755,-2.259 -1.755,-3.773c0,-2.757 2.243,-5 5,-5c1.513,0 2.855,0.69 3.773,1.756c0.44,-0.586 0.839,-1.158 1.176,-1.702c-0.377,-0.377 -0.8,-0.705 -1.254,-0.988c2.233,-1.414 3.377,-1.49 3.552,-1.313c0.484,0.483 -0.934,2.963 -1.31,3.558Z" transform="translate(2.403, 2.404)"></path>
    </g>
</svg>