<?xml version="1.0" encoding="UTF-8"?>
<svg version="1.1" viewBox="0 0 24 24" xmlns="http://www.w3.org/2000/svg" xmlns:xlink="http://www.w3.org/1999/xlink">
    <!--Generated by IJSVG (https://github.com/curthard89/IJSVG)-->
    <path fill="none" d="M0,0h24v24h-24Z"></path>
    <g fill="#4A4A4A">
        <path d="M3.60948,0.781049c0.781049,0.781049 0.781049,2.04738 0,2.82843c-0.781049,0.781049 -2.04738,0.781049 -2.82843,0c-0.781049,-0.781049 -0.781049,-2.04738 0,-2.82843c0.781049,-0.781049 2.04738,-0.781049 2.82843,0" transform="translate(13.8047, 9.80474)"></path>
        <path d="M23,5.036h-1.434l-2.709,-4.515c-0.144,-0.239 -0.38,-0.408 -0.653,-0.464c-0.272,-0.057 -0.558,0.003 -0.785,0.165l-6.739,4.814h3.441l3.579,-2.556l1.534,2.556h-4.234v2h7v8h-12v-2h-2v3c0,0.552 0.448,1 1,1h6.882l-0.224,0.448c-0.17,0.341 -0.512,0.552 -0.893,0.552h-6.351l-2.414,-2.414v-5.172l2.414,-2.414h3.586v1c0,0.552 -0.448,1 -1,1h-2v2h2c1.654,0 3,-1.346 3,-3v-2c0,-0.552 -0.447,-1 -1,-1h-5c-0.265,0 -0.52,0.105 -0.707,0.294l-1.833,1.833c-0.14,-0.074 -0.291,-0.127 -0.46,-0.127h-4c-0.552,0 -1,0.448 -1,1v8c0,0.552 0.448,1 1,1h4c0.169,0 0.32,-0.052 0.46,-0.126l1.833,1.834c0.187,0.187 0.442,0.292 0.707,0.292h6.765c1.144,0 2.172,-0.635 2.683,-1.659l0.67,-1.341h4.882c0.553,0 1,-0.448 1,-1v-10c0,-0.552 -0.447,-1 -1,-1Zm-19,11h-2v-6h2v6Z" transform="translate(0, 0.964)"></path>
    </g>
</svg>