<?xml version="1.0" standalone="no"?><!DOCTYPE svg PUBLIC "-//W3C//DTD SVG 1.1//EN" "http://www.w3.org/Graphics/SVG/1.1/DTD/svg11.dtd"><svg xmlns:xlink="http://www.w3.org/1999/xlink" xmlns="http://www.w3.org/2000/svg" version="1.1" width="200" height="200" viewBox="0 0 200 200"><defs><style type="text/css"><![CDATA[
@font-face {
  font-family: "ifont";
  src: url("//at.alicdn.com/t/font_1442373896_4754455.eot?#iefix") format("embedded-opentype"), url("//at.alicdn.com/t/font_1442373896_4754455.woff") format("woff"), url("//at.alicdn.com/t/font_1442373896_4754455.ttf") format("truetype"), url("//at.alicdn.com/t/font_1442373896_4754455.svg#ifont") format("svg");
}

]]></style></defs><g class="transform-group"><g transform="scale(0.1953125, 0.1953125)"><path d="M511.913993 63.989249c-247.012263 0-447.924744 200.912481-447.924744 447.924744s200.912481 447.924744 447.924744 447.924744 447.924744-200.912481 447.924744-447.924744S758.926256 63.989249 511.913993 63.989249zM671.199059 575.903242 480.263397 575.903242c-17.717453 0-32.166639-14.449185-32.166639-32.166639L448.096758 289.15572c0-17.717453 14.277171-31.994625 31.994625-31.994625s31.994625 14.277171 31.994625 31.994625l0 222.930287 159.285066 0c17.717453 0 31.994625 14.277171 31.994625 31.994625S688.916513 575.903242 671.199059 575.903242z" fill="#272636"></path></g></g></svg>