<?xml version="1.0" encoding="UTF-8"?>
<svg width="57" height="57" version="1.1" viewBox="0 0 56.693 56.693" xmlns="http://www.w3.org/2000/svg" xmlns:xlink="http://www.w3.org/1999/xlink">
    <!--Generated by IJSVG (https://github.com/curthard89/IJSVG)-->
    <g fill="#9B9B9B">
        <path d="M44.861,9.707c-9.709,-9.707 -25.443,-9.705 -35.15,0c-9.709,9.711 -9.711,25.447 -0.002,35.155c9.707,9.709 25.447,9.711 35.156,0.002c9.707,-9.705 9.703,-25.448 -0.004,-35.157Zm-5.513,9.98l-14.093,18.454c-0.452,0.591 -1.137,0.941 -1.878,0.956h-0.005h-0.052c-0.721,0 -1.398,-0.314 -1.858,-0.863l-6.038,-7.139c-0.419,-0.494 -0.619,-1.125 -0.566,-1.773c0.055,-0.648 0.358,-1.236 0.853,-1.656c0.957,-0.811 2.625,-0.668 3.432,0.287l4.083,4.826l12.253,-16.047c0.762,-0.996 2.411,-1.221 3.412,-0.458c0.517,0.395 0.849,0.967 0.935,1.612c0.086,0.645 -0.083,1.285 -0.478,1.801Z" transform="translate(1.061, 2.06)"></path>
    </g>
</svg>