<?xml version="1.0" encoding="UTF-8"?>
<svg width="57" height="57" version="1.1" viewBox="0 0 56.693 56.693" xmlns="http://www.w3.org/2000/svg" xmlns:xlink="http://www.w3.org/1999/xlink">
    <!--Generated by IJSVG (https://github.com/curthard89/IJSVG)-->
    <g fill="#9B9B9B">
        <path d="M2.565,0.224c-1.068,-0.224 -2.117,0.462 -2.344,1.533c-0.221,1.069 0.466,2.118 1.535,2.341c5.17,1.081 8.498,6.165 7.416,11.337c-0.221,1.07 0.461,2.118 1.532,2.342c1.071,0.225 2.118,-0.461 2.343,-1.532c1.526,-7.307 -3.175,-14.495 -10.482,-16.021Z" transform="translate(28.2, 14.268)"></path>
        <path d="M2.565,0.224c-1.066,-0.224 -2.114,0.462 -2.338,1.532c-0.227,1.07 0.459,2.118 1.531,2.343c10.629,2.22 17.467,12.677 15.247,23.306c-0.226,1.07 0.463,2.118 1.53,2.342c1.071,0.224 2.12,-0.462 2.344,-1.532c2.666,-12.768 -5.549,-25.323 -18.314,-27.991Z" transform="translate(30.269, 4.368)"></path>
        <path d="M31.732,28.665c-0.3,-0.458 -0.908,-0.594 -1.38,-0.307l-0.294,0.19c-0.802,0.519 -3.103,2.007 -3.326,2.143c-0.056,0.037 -0.114,0.062 -0.179,0.08c-1.578,0.434 -5.767,-3.677 -8.229,-8.913c-1.478,-3.15 -1.477,-5.054 -0.881,-5.472l3.636,-2.355c0.226,-0.147 0.384,-0.377 0.438,-0.639c0.057,-0.262 0.008,-0.536 -0.14,-0.762l-7.869,-12.135c-0.145,-0.226 -0.376,-0.384 -0.639,-0.439c-0.264,-0.056 -0.536,-0.003 -0.763,0.142l-0.567,0.368c-1.025,0.665 -3.073,1.995 -3.127,2.031l-0.127,0.086c-4.573,3.1 -8.285,9.018 3.654,27.436c7.996,12.333 14.706,17.555 20.514,15.96h0.002c1.266,-0.348 2.247,-0.952 2.96,-1.392l0.223,-0.136c0.153,-0.093 3.656,-2.353 3.751,-2.421c0.443,-0.316 0.557,-0.924 0.262,-1.379l-7.919,-12.086Z" transform="translate(0.842, 7.21)"></path>
    </g>
</svg>