<?xml version="1.0" standalone="no"?><!DOCTYPE svg PUBLIC "-//W3C//DTD SVG 1.1//EN" "http://www.w3.org/Graphics/SVG/1.1/DTD/svg11.dtd"><svg width="200" height="200" viewBox="0 0 200 200" version="1.1" xmlns="http://www.w3.org/2000/svg" xmlns:xlink="http://www.w3.org/1999/xlink"><defs><style type="text/css"><![CDATA[
@font-face { font-family: ifont; src: url("http://at.alicdn.com/t/font_1442373896_4754455.eot?#iefix") format("embedded-opentype"), url("http://at.alicdn.com/t/font_1442373896_4754455.woff") format("woff"), url("http://at.alicdn.com/t/font_1442373896_4754455.ttf") format("truetype"), url("http://at.alicdn.com/t/font_1442373896_4754455.svg#ifont") format("svg"); }

]]></style></defs><g class="transform-group"><g transform="scale(0.1953125, 0.1953125)"><path d="M831.722906 1024 255.881291 1024c-70.667366 0-127.95648-57.292902-127.95648-127.964467L127.924811 256.245082l383.890022 127.964467 63.975695 0 383.896166-127.964467 0 639.790478C959.686554 966.706074 902.391296 1024 831.722906 1024zM577.351066 702.089318l92.862771-0.224154c23.257702 0.224154 31.542682-11.836621 31.97143-26.372608 0.358195-12.610253-11.555635-36.372378-32.534323-36.941312l-92.831071 0 0-22.39301c0 0 70.462669-71.964058 88.748954-88.546714 18.227917-16.66048 22.834995-29.705523 11.567923-43.179418-11.42057-13.749146-31.555994-12.897792-46.297293-0.696832-14.959309 12.399411-86.919168 79.250944-86.919168 79.250944s-61.774438-63.793971-75.146547-76.627251c-12.00896-11.561267-37.499597-22.763418-51.217613-7.235789-14.31255 16.231731-3.186688 36.506419 5.777818 45.374464 8.937882 8.784077 86.240666 90.517606 86.240666 90.517606l-0.14121 24.593101c0 0-82.549453 0-96.868147 0-14.318694 0-26.968371 25.476198-26.51392 39.014605 0.460493 13.46775 11.305984 24.03031 26.482278 24.03031 15.17015 0 96.580608-0.56279 96.580608-0.56279l-0.210842 68.59223c0 0-86.016614 0-100.336333 0-14.318694 0-26.334822 14.42048-26.911027 27.958784-0.562893 13.544448 10.704282 31.893402 26.911027 31.893402 16.232346 0 100.118323 0 100.118323 0s-0.172954 23.46752 0.428749 33.243136c1.349837 21.82912 15.669555 30.761574 34.80617 31.11977 19.143782 0.364339 32.726733-15.655526 32.681677-29.980774-0.064512-11.836621-0.345907-34.382029-0.345907-34.382029s83.323085-0.147354 99.063296 0c15.739085 0.134042 27.505562-15.796736 26.865971-31.893402-0.562893-16.161075-10.346086-28.521574-34.236109-28.521574-23.897293 0-91.129242 0-91.129242 0L577.351066 702.089318zM575.79049 320.224256l-63.975695 0L127.924736 192.273101c0-70.677709 57.289114-127.958323 127.95648-127.958323l575.841637 0c70.667366 0 127.963648 57.280614 127.963648 127.958323L575.79049 320.224256z" fill="#eb4f38"></path></g></g></svg>