<?xml version="1.0" encoding="UTF-8"?>
<svg version="1.1" viewBox="0 0 24 24" xmlns="http://www.w3.org/2000/svg" xmlns:xlink="http://www.w3.org/1999/xlink">
    <!--Generated by IJSVG (https://github.com/curthard89/IJSVG)-->
    <path fill="none" d="M0,0h24v24h-24Z"></path>
    <g fill="#4A4A4A">
        <path d="M5,14c-0.152,0 -0.306,-0.035 -0.447,-0.105c-0.339,-0.169 -0.553,-0.516 -0.553,-0.895v-2h-1v-2h2c0.552,0 1,0.448 1,1v1l2.4,-1.8c0.173,-0.13 0.384,-0.2 0.6,-0.2h3v-7h-10v3h-2v-3c0,-1.104 0.897,-2 2,-2h10c1.103,0 2,0.896 2,2v7c0,1.103 -0.897,2 -2,2h-2.667l-3.733,2.8c-0.177,0.132 -0.388,0.2 -0.6,0.2Z" transform="translate(10, 2)"></path>
        <path d="M4,8c-2.206,0 -4,-1.794 -4,-4c0,-2.206 1.794,-4 4,-4c2.206,0 4,1.794 4,4c0,2.206 -1.794,4 -4,4Zm0,-6c-1.103,0 -2,0.896 -2,2c0,1.103 0.897,2 2,2c1.103,0 2,-0.897 2,-2c0,-1.104 -0.897,-2 -2,-2Z" transform="translate(4, 8)"></path>
        <path d="M16,7h-16v-1c0,-3.533 3.29,-6 8,-6c4.71,0 8,2.467 8,6v1Zm-13.841,-2h11.683c-0.598,-1.808 -2.833,-3 -5.841,-3c-3.008,0 -5.244,1.192 -5.842,3Z" transform="translate(0, 17)"></path>
    </g>
</svg>