<?xml version="1.0" encoding="UTF-8"?>
<svg version="1.1" viewBox="0 0 24 24.001" xmlns="http://www.w3.org/2000/svg" xmlns:xlink="http://www.w3.org/1999/xlink">
    <!--Generated by IJSVG (https://github.com/curthard89/IJSVG)-->
    <path fill="none" d="M0,0h24v24.001h-24Z"></path>
    <g fill="#4A4A4A">
        <path d="M18.924,0.618c-0.155,-0.374 -0.52,-0.618 -0.924,-0.618h-13c-2.757,0 -5,2.243 -5,5c0,2.757 2.243,5 5,5h2v2.246l-5,1.429v-2.675h-2v7h2v-2.246l6.275,-1.792c0.429,-0.123 0.725,-0.516 0.725,-0.962v-3h4c0.552,0 1,-0.448 1,-1h2c0.552,0 1,-0.448 1,-1v-3c0,-0.43 -0.274,-0.789 -0.655,-0.931l2.362,-2.362c0.286,-0.285 0.372,-0.716 0.217,-1.089Zm-6.631,4.675c-0.188,0.187 -0.293,0.442 -0.293,0.707v2h-7c-1.654,0 -3,-1.346 -3,-3c0,-1.302 0.839,-2.401 2,-2.815v2.815h2v-3h1v2h2v-2h6.586l-3.293,3.293Zm2.707,0.707v1h-1v-0.585l0.415,-0.415h0.585Z" transform="translate(2.999, 3)"></path>
    </g>
</svg>