<?xml version="1.0" encoding="UTF-8"?>
<svg version="1.1" viewBox="0 0 24 24" xmlns="http://www.w3.org/2000/svg" xmlns:xlink="http://www.w3.org/1999/xlink">
    <!--Generated by IJSVG (https://github.com/curthard89/IJSVG)-->
    <path fill="none" d="M0,0h24v24h-24Z"></path>
    <g fill="#4A4A4A">
        <path d="M0,10c0,5.515 4.486,10 10,10v-2c-1.061,0 -2.073,-0.212 -3,-0.589v-3.411h3v-2h-3v-4h3v-2h-3v-3.411c0.927,-0.377 1.939,-0.589 3,-0.589v-2c-5.514,0 -10,4.486 -10,10Zm5,6.235c-0.77,-0.618 -1.419,-1.377 -1.917,-2.235h1.917v2.235Zm0,-4.235h-2.737c-0.165,-0.641 -0.263,-1.309 -0.263,-2c0,-0.691 0.098,-1.359 0.263,-2h2.737v4Zm0,-8.235v2.235h-1.917c0.498,-0.858 1.147,-1.617 1.917,-2.235Z" transform="translate(1, 2)"></path>
        <path d="M6,3c0,-1.654 -1.346,-3 -3,-3c-1.654,0 -3,1.346 -3,3c0,1.654 1.346,3 3,3c1.654,0 3,-1.346 3,-3Zm-3,1c-0.551,0 -1,-0.449 -1,-1c0,-0.551 0.449,-1 1,-1c0.551,0 1,0.449 1,1c0,0.551 -0.449,1 -1,1Z" transform="translate(14, 2)"></path>
        <path d="M5,0c-2.757,0 -5,2.243 -5,5v3c0,0.552 0.448,1 1,1h1v4c0,0.552 0.448,1 1,1h4c0.552,0 1,-0.448 1,-1v-4h1c0.552,0 1,-0.448 1,-1v-3c0,-2.757 -2.243,-5 -5,-5Zm3,7h-1c-0.552,0 -1,0.448 -1,1v4h-2v-4c0,-0.552 -0.448,-1 -1,-1h-1v-2c0,-1.654 1.346,-3 3,-3c1.654,0 3,1.346 3,3v2Z" transform="translate(12, 8)"></path>
    </g>
</svg>